<svg width="25" height="19" viewBox="0 0 25 19" fill="none" xmlns="http://www.w3.org/2000/svg">
<path fill-rule="evenodd" clip-rule="evenodd" d="M3.25 0.5C2.45435 0.5 1.69129 0.81607 1.12868 1.37868C0.56607 1.94129 0.25 2.70435 0.25 3.5V8C0.25 8.79565 0.56607 9.55871 1.12868 10.1213C1.69129 10.6839 2.45435 11 3.25 11H7.75C7.75 12.1935 7.27589 13.3381 6.43198 14.182C5.58807 15.0259 4.44347 15.5 3.25 15.5H1.75C1.35218 15.5 0.970645 15.658 0.68934 15.9393C0.408036 16.2206 0.25 16.6022 0.25 17C0.25 17.3978 0.408036 17.7794 0.68934 18.0607C0.970645 18.342 1.35218 18.5 1.75 18.5H3.25C5.23912 18.5 7.14678 17.7098 8.5533 16.3033C9.95982 14.8968 10.75 12.9891 10.75 11V3.5C10.75 2.70435 10.4339 1.94129 9.87132 1.37868C9.30871 0.81607 8.54565 0.5 7.75 0.5H3.25ZM16.75 0.5C15.9544 0.5 15.1913 0.81607 14.6287 1.37868C14.0661 1.94129 13.75 2.70435 13.75 3.5V8C13.75 8.79565 14.0661 9.55871 14.6287 10.1213C15.1913 10.6839 15.9544 11 16.75 11H21.25C21.25 12.1935 20.7759 13.3381 19.932 14.182C19.0881 15.0259 17.9435 15.5 16.75 15.5H15.25C14.8522 15.5 14.4706 15.658 14.1893 15.9393C13.908 16.2206 13.75 16.6022 13.75 17C13.75 17.3978 13.908 17.7794 14.1893 18.0607C14.4706 18.342 14.8522 18.5 15.25 18.5H16.75C18.7391 18.5 20.6468 17.7098 22.0533 16.3033C23.4598 14.8968 24.25 12.9891 24.25 11V3.5C24.25 2.70435 23.9339 1.94129 23.3713 1.37868C22.8087 0.81607 22.0456 0.5 21.25 0.5H16.75Z" fill="#161734"/>
</svg>
