<svg width="18" height="18" viewBox="0 0 18 18" fill="none" xmlns="http://www.w3.org/2000/svg">
<path d="M16.6862 0.360107H1.31375C1.06079 0.360107 0.8182 0.460593 0.639335 0.639457C0.46047 0.818322 0.359985 1.06091 0.359985 1.31387V16.6866C0.360049 16.9395 0.460562 17.182 0.63942 17.3608C0.818278 17.5397 1.06083 17.6401 1.31375 17.6401H9.58967V10.9484H7.33775V8.34059H9.58967V6.41723C9.58967 4.18523 10.9529 2.97011 12.9439 2.97011C13.8977 2.97011 14.7173 3.04091 14.9563 3.07283V5.40539L13.5753 5.40611C12.4925 5.40611 12.2829 5.92067 12.2829 6.67571V8.34083H14.8653L14.5291 10.9487H12.2829V17.6401H16.6865C16.9394 17.64 17.1819 17.5395 17.3607 17.3607C17.5395 17.1818 17.64 16.9393 17.64 16.6863V1.31387C17.64 1.06091 17.5395 0.818322 17.3606 0.639457C17.1818 0.460593 16.9392 0.360107 16.6862 0.360107Z" fill="white"/>
</svg>
