<svg width="98" height="98" viewBox="0 0 98 98" fill="none" xmlns="http://www.w3.org/2000/svg">
<circle cx="3.5" cy="3.5" r="3.5" fill="#161734" fill-opacity="0.4"/>
<circle cx="16.5" cy="3.5" r="3.5" fill="#161734" fill-opacity="0.4"/>
<circle cx="29.5" cy="3.5" r="3.5" fill="#161734" fill-opacity="0.4"/>
<circle cx="42.5" cy="3.5" r="3.5" fill="#161734" fill-opacity="0.4"/>
<circle cx="55.5" cy="3.5" r="3.5" fill="#161734" fill-opacity="0.4"/>
<circle cx="68.5" cy="3.5" r="3.5" fill="#161734" fill-opacity="0.4"/>
<circle cx="81.5" cy="3.5" r="3.5" fill="#161734" fill-opacity="0.4"/>
<circle cx="94.5" cy="3.5" r="3.5" fill="#161734" fill-opacity="0.4"/>
<circle cx="3.5" cy="16.5" r="3.5" fill="#161734" fill-opacity="0.4"/>
<circle cx="16.5" cy="16.5" r="3.5" fill="#161734" fill-opacity="0.4"/>
<circle cx="29.5" cy="16.5" r="3.5" fill="#161734" fill-opacity="0.4"/>
<circle cx="42.5" cy="16.5" r="3.5" fill="#161734" fill-opacity="0.4"/>
<circle cx="55.5" cy="16.5" r="3.5" fill="#161734" fill-opacity="0.4"/>
<circle cx="68.5" cy="16.5" r="3.5" fill="#161734" fill-opacity="0.4"/>
<circle cx="81.5" cy="16.5" r="3.5" fill="#161734" fill-opacity="0.4"/>
<circle cx="94.5" cy="16.5" r="3.5" fill="#161734" fill-opacity="0.4"/>
<circle cx="3.5" cy="29.5" r="3.5" fill="#161734" fill-opacity="0.4"/>
<circle cx="16.5" cy="29.5" r="3.5" fill="#161734" fill-opacity="0.4"/>
<circle cx="29.5" cy="29.5" r="3.5" fill="#161734" fill-opacity="0.4"/>
<circle cx="42.5" cy="29.5" r="3.5" fill="#161734" fill-opacity="0.4"/>
<circle cx="55.5" cy="29.5" r="3.5" fill="#161734" fill-opacity="0.4"/>
<circle cx="68.5" cy="29.5" r="3.5" fill="#161734" fill-opacity="0.4"/>
<circle cx="81.5" cy="29.5" r="3.5" fill="#161734" fill-opacity="0.4"/>
<circle cx="94.5" cy="29.5" r="3.5" fill="#161734" fill-opacity="0.4"/>
<circle cx="3.5" cy="42.5" r="3.5" fill="#161734" fill-opacity="0.4"/>
<circle cx="16.5" cy="42.5" r="3.5" fill="#161734" fill-opacity="0.4"/>
<circle cx="29.5" cy="42.5" r="3.5" fill="#161734" fill-opacity="0.4"/>
<circle cx="42.5" cy="42.5" r="3.5" fill="#161734" fill-opacity="0.4"/>
<circle cx="55.5" cy="42.5" r="3.5" fill="#161734" fill-opacity="0.4"/>
<circle cx="68.5" cy="42.5" r="3.5" fill="#161734" fill-opacity="0.4"/>
<circle cx="81.5" cy="42.5" r="3.5" fill="#161734" fill-opacity="0.4"/>
<circle cx="94.5" cy="42.5" r="3.5" fill="#161734" fill-opacity="0.4"/>
<circle cx="3.5" cy="55.5" r="3.5" fill="#161734" fill-opacity="0.4"/>
<circle cx="16.5" cy="55.5" r="3.5" fill="#161734" fill-opacity="0.4"/>
<circle cx="29.5" cy="55.5" r="3.5" fill="#161734" fill-opacity="0.4"/>
<circle cx="42.5" cy="55.5" r="3.5" fill="#161734" fill-opacity="0.4"/>
<circle cx="55.5" cy="55.5" r="3.5" fill="#161734" fill-opacity="0.4"/>
<circle cx="68.5" cy="55.5" r="3.5" fill="#161734" fill-opacity="0.4"/>
<circle cx="81.5" cy="55.5" r="3.5" fill="#161734" fill-opacity="0.4"/>
<circle cx="94.5" cy="55.5" r="3.5" fill="#161734" fill-opacity="0.4"/>
<circle cx="3.5" cy="68.5" r="3.5" fill="#161734" fill-opacity="0.4"/>
<circle cx="16.5" cy="68.5" r="3.5" fill="#161734" fill-opacity="0.4"/>
<circle cx="29.5" cy="68.5" r="3.5" fill="#161734" fill-opacity="0.4"/>
<circle cx="42.5" cy="68.5" r="3.5" fill="#161734" fill-opacity="0.4"/>
<circle cx="55.5" cy="68.5" r="3.5" fill="#161734" fill-opacity="0.4"/>
<circle cx="68.5" cy="68.5" r="3.5" fill="#161734" fill-opacity="0.4"/>
<circle cx="81.5" cy="68.5" r="3.5" fill="#161734" fill-opacity="0.4"/>
<circle cx="94.5" cy="68.5" r="3.5" fill="#161734" fill-opacity="0.4"/>
<circle cx="3.5" cy="81.5" r="3.5" fill="#161734" fill-opacity="0.4"/>
<circle cx="16.5" cy="81.5" r="3.5" fill="#161734" fill-opacity="0.4"/>
<circle cx="29.5" cy="81.5" r="3.5" fill="#161734" fill-opacity="0.4"/>
<circle cx="42.5" cy="81.5" r="3.5" fill="#161734" fill-opacity="0.4"/>
<circle cx="55.5" cy="81.5" r="3.5" fill="#161734" fill-opacity="0.4"/>
<circle cx="68.5" cy="81.5" r="3.5" fill="#161734" fill-opacity="0.4"/>
<circle cx="81.5" cy="81.5" r="3.5" fill="#161734" fill-opacity="0.4"/>
<circle cx="94.5" cy="81.5" r="3.5" fill="#161734" fill-opacity="0.4"/>
<circle cx="3.5" cy="94.5" r="3.5" fill="#161734" fill-opacity="0.4"/>
<circle cx="16.5" cy="94.5" r="3.5" fill="#161734" fill-opacity="0.4"/>
<circle cx="29.5" cy="94.5" r="3.5" fill="#161734" fill-opacity="0.4"/>
<circle cx="42.5" cy="94.5" r="3.5" fill="#161734" fill-opacity="0.4"/>
<circle cx="55.5" cy="94.5" r="3.5" fill="#161734" fill-opacity="0.4"/>
<circle cx="68.5" cy="94.5" r="3.5" fill="#161734" fill-opacity="0.4"/>
<circle cx="81.5" cy="94.5" r="3.5" fill="#161734" fill-opacity="0.4"/>
<circle cx="94.5" cy="94.5" r="3.5" fill="#161734" fill-opacity="0.4"/>
</svg>
