<svg width="43" height="39" viewBox="0 0 43 39" fill="none" xmlns="http://www.w3.org/2000/svg">
<path d="M38.25 38.25C39.3606 38.25 40.4257 37.8088 41.211 37.0235C41.9963 36.2382 42.4375 35.1731 42.4375 34.0625V23.8366C42.4375 22.726 41.9963 21.6609 41.211 20.8756C40.4257 20.0903 39.3606 19.6491 38.25 19.6491H32.4378C32.4378 18.1779 32.5243 16.7067 32.6974 15.2355C32.957 13.6778 33.3897 12.2931 33.9955 11.0815C34.6013 9.86992 35.3816 8.91656 36.3363 8.22144C37.2855 7.44256 38.4971 7.05313 39.9711 7.05313V0.5625C37.5479 0.5625 35.4263 1.08175 33.6061 2.12025C31.7985 3.14566 30.2455 4.56556 29.0627 6.27425C27.8718 8.15506 26.9949 10.2171 26.4664 12.3796C25.932 14.7654 25.6707 17.2043 25.6875 19.6491V34.0625C25.6875 35.1731 26.1287 36.2382 26.914 37.0235C27.6993 37.8088 28.7644 38.25 29.875 38.25H38.25ZM13.125 38.25C14.2356 38.25 15.3007 37.8088 16.086 37.0235C16.8713 36.2382 17.3125 35.1731 17.3125 34.0625V23.8366C17.3125 22.726 16.8713 21.6609 16.086 20.8756C15.3007 20.0903 14.2356 19.6491 13.125 19.6491H7.31278C7.31278 18.1779 7.39932 16.7067 7.5724 15.2355C7.83482 13.6778 8.26753 12.2931 8.87053 11.0815C9.47632 9.86992 10.2566 8.91656 11.2113 8.22144C12.1605 7.44256 13.3721 7.05313 14.8461 7.05313V0.5625C12.4229 0.5625 10.3013 1.08175 8.48109 2.12025C6.67353 3.14566 5.12051 4.56556 3.93766 6.27425C2.74678 8.15506 1.8699 10.2171 1.34141 12.3796C0.807012 14.7654 0.545707 17.2043 0.562531 19.6491V34.0625C0.562531 35.1731 1.00371 36.2382 1.78902 37.0235C2.57433 37.8088 3.63944 38.25 4.75003 38.25H13.125Z" fill="#C7AE2E"/>
</svg>
